REM MD5 2353492b573e1628419ee1dad3270915
FILE "Land Before Time, The - Racing Adventure (Europe) (En,Fr,De,Es,It).bin" BINARY
  TRACK 01 MODE2/2352
    INDEX 01 00:00:00
  TRACK 02 AUDIO
    INDEX 00 39:50:72
    INDEX 01 39:52:72
  TRACK 03 AUDIO
    INDEX 00 42:09:56
    INDEX 01 42:11:56
  TRACK 04 AUDIO
    INDEX 00 44:40:43
    INDEX 01 44:42:43
  TRACK 05 AUDIO
    INDEX 00 47:01:19
    INDEX 01 47:03:19
  TRACK 06 AUDIO
    INDEX 00 49:11:00
    INDEX 01 49:13:00
REM LEADOUT 52:13:00
